<mxfile host="Electron" modified="2024-02-04T20:41:43.859Z" agent="Mozilla/5.0 (Windows NT 10.0; Win64; x64) AppleWebKit/537.36 (KHTML, like Gecko) draw.io/23.0.2 Chrome/120.0.6099.109 Electron/28.1.0 Safari/537.36" etag="htLEY-wMK5d09alvUU-I" version="23.0.2" type="device">
  <diagram name="Page-1" id="NejtTL7FHISSoUmjQtkU">
    <mxGraphModel dx="794" dy="511" grid="1" gridSize="10" guides="1" tooltips="1" connect="1" arrows="1" fold="1" page="1" pageScale="1" pageWidth="827" pageHeight="1169" math="0" shadow="0">
      <root>
        <mxCell id="0" />
        <mxCell id="1" parent="0" />
        <UserObject label="Sponsors" type="externalEntity" source="" flow="" placeholders="1" id="ezNjA5Wxd-ZKoXVSeu9R-1">
          <mxCell style="shape=rectangle;whiteSpace=wrap;html=1;fillColor=#ffffff;strokeColor=#000000;align=center;verticalAlign=middle;fontColor=#232F3E;" vertex="1" parent="1">
            <mxGeometry width="75" height="35" as="geometry" />
          </mxCell>
        </UserObject>
        <UserObject label="Sponsors List" type="process" source="1" flow="Sponsors" placeholders="1" id="ezNjA5Wxd-ZKoXVSeu9R-2">
          <mxCell style="shape=ellipse;perimeter=ellipsePerimeter;whiteSpace=wrap;html=1;fillColor=#ffffff;strokeColor=#000000;align=center;verticalAlign=middle;fontColor=#232F3E;" vertex="1" parent="1">
            <mxGeometry x="175" width="105" height="35" as="geometry" />
          </mxCell>
        </UserObject>
        <UserObject label="Users" type="externalEntity" source="" flow="" placeholders="1" id="ezNjA5Wxd-ZKoXVSeu9R-3">
          <mxCell style="shape=rectangle;whiteSpace=wrap;html=1;fillColor=#ffffff;strokeColor=#000000;align=center;verticalAlign=middle;fontColor=#232F3E;" vertex="1" parent="1">
            <mxGeometry y="95" width="55" height="35" as="geometry" />
          </mxCell>
        </UserObject>
        <UserObject label="Users List" type="process" source="3" flow="Users" placeholders="1" id="ezNjA5Wxd-ZKoXVSeu9R-4">
          <mxCell style="shape=ellipse;perimeter=ellipsePerimeter;whiteSpace=wrap;html=1;fillColor=#ffffff;strokeColor=#000000;align=center;verticalAlign=middle;fontColor=#232F3E;" vertex="1" parent="1">
            <mxGeometry x="155" y="95" width="85" height="35" as="geometry" />
          </mxCell>
        </UserObject>
        <UserObject label="Trainers" type="externalEntity" source="" flow="" placeholders="1" id="ezNjA5Wxd-ZKoXVSeu9R-5">
          <mxCell style="shape=rectangle;whiteSpace=wrap;html=1;fillColor=#ffffff;strokeColor=#000000;align=center;verticalAlign=middle;fontColor=#232F3E;" vertex="1" parent="1">
            <mxGeometry y="222.5" width="75" height="35" as="geometry" />
          </mxCell>
        </UserObject>
        <UserObject label="Trainers List" type="process" source="5" flow="Trainers" placeholders="1" id="ezNjA5Wxd-ZKoXVSeu9R-6">
          <mxCell style="shape=ellipse;perimeter=ellipsePerimeter;whiteSpace=wrap;html=1;fillColor=#ffffff;strokeColor=#000000;align=center;verticalAlign=middle;fontColor=#232F3E;" vertex="1" parent="1">
            <mxGeometry x="175" y="190" width="95" height="35" as="geometry" />
          </mxCell>
        </UserObject>
        <UserObject label="Training Nodes" type="dataStore" source="6" flow="Training Nodes" placeholders="1" id="ezNjA5Wxd-ZKoXVSeu9R-7">
          <mxCell style="html=1;dashed=0;whiteSpace=wrap;shape=partialRectangle;right=0;left=0;" vertex="1" parent="1">
            <mxGeometry x="370" y="193.856201171875" width="105" height="35" as="geometry" />
          </mxCell>
        </UserObject>
        <UserObject label="Training Node Editing" type="process" source="7" flow="Training Nodes" placeholders="1" id="ezNjA5Wxd-ZKoXVSeu9R-8">
          <mxCell style="shape=ellipse;perimeter=ellipsePerimeter;whiteSpace=wrap;html=1;fillColor=#ffffff;strokeColor=#000000;align=center;verticalAlign=middle;fontColor=#232F3E;" vertex="1" parent="1">
            <mxGeometry x="575" y="195.7843017578125" width="145" height="35" as="geometry" />
          </mxCell>
        </UserObject>
        <UserObject label="Training Node Links" type="dataStore" source="8" flow="Training Node Links" placeholders="1" id="ezNjA5Wxd-ZKoXVSeu9R-9">
          <mxCell style="html=1;dashed=0;whiteSpace=wrap;shape=partialRectangle;right=0;left=0;" vertex="1" parent="1">
            <mxGeometry x="820" y="195.7843017578125" width="135" height="35" as="geometry" />
          </mxCell>
        </UserObject>
        <UserObject label="Maps" type="externalEntity" source="" flow="" placeholders="1" id="ezNjA5Wxd-ZKoXVSeu9R-10">
          <mxCell style="shape=rectangle;whiteSpace=wrap;html=1;fillColor=#ffffff;strokeColor=#000000;align=center;verticalAlign=middle;fontColor=#232F3E;" vertex="1" parent="1">
            <mxGeometry y="350" width="55" height="35" as="geometry" />
          </mxCell>
        </UserObject>
        <UserObject label="Buildings and Rooms" type="process" source="10" flow="Maps" placeholders="1" id="ezNjA5Wxd-ZKoXVSeu9R-11">
          <mxCell style="shape=ellipse;perimeter=ellipsePerimeter;whiteSpace=wrap;html=1;fillColor=#ffffff;strokeColor=#000000;align=center;verticalAlign=middle;fontColor=#232F3E;" vertex="1" parent="1">
            <mxGeometry x="155" y="350" width="145" height="35" as="geometry" />
          </mxCell>
        </UserObject>
        <UserObject label="Clear Map" type="dataStore" source="11" flow="Buildings and Rooms" placeholders="1" id="ezNjA5Wxd-ZKoXVSeu9R-12">
          <mxCell style="html=1;dashed=0;whiteSpace=wrap;shape=partialRectangle;right=0;left=0;" vertex="1" parent="1">
            <mxGeometry x="400" y="350" width="85" height="35" as="geometry" />
          </mxCell>
        </UserObject>
        <UserObject label="Email" type="process" source="5" flow="Trainers" placeholders="1" id="ezNjA5Wxd-ZKoXVSeu9R-13">
          <mxCell style="shape=ellipse;perimeter=ellipsePerimeter;whiteSpace=wrap;html=1;fillColor=#ffffff;strokeColor=#000000;align=center;verticalAlign=middle;fontColor=#232F3E;" vertex="1" parent="1">
            <mxGeometry x="195" y="255" width="55" height="35" as="geometry" />
          </mxCell>
        </UserObject>
        <UserObject label="Training Coordinators" type="externalEntity" source="" flow="" placeholders="1" id="ezNjA5Wxd-ZKoXVSeu9R-14">
          <mxCell style="shape=rectangle;whiteSpace=wrap;html=1;fillColor=#ffffff;strokeColor=#000000;align=center;verticalAlign=middle;fontColor=#232F3E;" vertex="1" parent="1">
            <mxGeometry y="445" width="145" height="35" as="geometry" />
          </mxCell>
        </UserObject>
        <UserObject label="Email All Trainers" type="process" source="14" flow="Training Coordinators" placeholders="1" id="ezNjA5Wxd-ZKoXVSeu9R-15">
          <mxCell style="shape=ellipse;perimeter=ellipsePerimeter;whiteSpace=wrap;html=1;fillColor=#ffffff;strokeColor=#000000;align=center;verticalAlign=middle;fontColor=#232F3E;" vertex="1" parent="1">
            <mxGeometry x="245" y="445" width="125" height="35" as="geometry" />
          </mxCell>
        </UserObject>
        <mxCell id="ezNjA5Wxd-ZKoXVSeu9R-16" value="Sponsors" style="endArrow=blockThin;endFill=1;fontSize=11;orthogonal=1;noEdgeStyle=1;" edge="1" parent="1" source="ezNjA5Wxd-ZKoXVSeu9R-1" target="ezNjA5Wxd-ZKoXVSeu9R-2">
          <mxGeometry relative="1" as="geometry">
            <Array as="points">
              <mxPoint x="87" y="17.5" />
              <mxPoint x="163" y="17.5" />
            </Array>
          </mxGeometry>
        </mxCell>
        <mxCell id="ezNjA5Wxd-ZKoXVSeu9R-17" value="Users" style="endArrow=blockThin;endFill=1;fontSize=11;orthogonal=1;noEdgeStyle=1;" edge="1" parent="1" source="ezNjA5Wxd-ZKoXVSeu9R-3" target="ezNjA5Wxd-ZKoXVSeu9R-4">
          <mxGeometry relative="1" as="geometry">
            <Array as="points">
              <mxPoint x="67" y="112.5" />
              <mxPoint x="143" y="112.5" />
            </Array>
          </mxGeometry>
        </mxCell>
        <mxCell id="ezNjA5Wxd-ZKoXVSeu9R-18" value="Trainers" style="endArrow=blockThin;endFill=1;fontSize=11;orthogonal=1;noEdgeStyle=1;" edge="1" parent="1" source="ezNjA5Wxd-ZKoXVSeu9R-5" target="ezNjA5Wxd-ZKoXVSeu9R-6">
          <mxGeometry relative="1" as="geometry">
            <Array as="points">
              <mxPoint x="87" y="233.75" />
              <mxPoint x="163" y="207.5" />
            </Array>
          </mxGeometry>
        </mxCell>
        <mxCell id="ezNjA5Wxd-ZKoXVSeu9R-19" value="Training Nodes" style="endArrow=blockThin;endFill=1;fontSize=11;orthogonal=1;noEdgeStyle=1;" edge="1" parent="1" source="ezNjA5Wxd-ZKoXVSeu9R-6" target="ezNjA5Wxd-ZKoXVSeu9R-7">
          <mxGeometry relative="1" as="geometry">
            <Array as="points">
              <mxPoint x="282" y="207.5" />
              <mxPoint x="358" y="211.356201171875" />
            </Array>
          </mxGeometry>
        </mxCell>
        <mxCell id="ezNjA5Wxd-ZKoXVSeu9R-20" value="Training Nodes" style="endArrow=blockThin;endFill=1;fontSize=11;orthogonal=1;noEdgeStyle=1;" edge="1" parent="1" source="ezNjA5Wxd-ZKoXVSeu9R-7" target="ezNjA5Wxd-ZKoXVSeu9R-8">
          <mxGeometry relative="1" as="geometry">
            <Array as="points">
              <mxPoint x="487" y="211.356201171875" />
              <mxPoint x="563" y="213.2843017578125" />
            </Array>
          </mxGeometry>
        </mxCell>
        <mxCell id="ezNjA5Wxd-ZKoXVSeu9R-21" value="Training Node Links" style="endArrow=blockThin;endFill=1;fontSize=11;orthogonal=1;noEdgeStyle=1;" edge="1" parent="1" source="ezNjA5Wxd-ZKoXVSeu9R-8" target="ezNjA5Wxd-ZKoXVSeu9R-9">
          <mxGeometry relative="1" as="geometry">
            <Array as="points">
              <mxPoint x="732" y="213.2843017578125" />
              <mxPoint x="808" y="213.2843017578125" />
            </Array>
          </mxGeometry>
        </mxCell>
        <mxCell id="ezNjA5Wxd-ZKoXVSeu9R-22" value="Maps" style="endArrow=blockThin;endFill=1;fontSize=11;orthogonal=1;noEdgeStyle=1;" edge="1" parent="1" source="ezNjA5Wxd-ZKoXVSeu9R-10" target="ezNjA5Wxd-ZKoXVSeu9R-11">
          <mxGeometry relative="1" as="geometry">
            <Array as="points">
              <mxPoint x="67" y="367.5" />
              <mxPoint x="143" y="367.5" />
            </Array>
          </mxGeometry>
        </mxCell>
        <mxCell id="ezNjA5Wxd-ZKoXVSeu9R-23" value="Buildings and Rooms" style="endArrow=blockThin;endFill=1;fontSize=11;orthogonal=1;noEdgeStyle=1;" edge="1" parent="1" source="ezNjA5Wxd-ZKoXVSeu9R-11" target="ezNjA5Wxd-ZKoXVSeu9R-12">
          <mxGeometry relative="1" as="geometry">
            <Array as="points">
              <mxPoint x="312" y="367.5" />
              <mxPoint x="388" y="367.5" />
            </Array>
          </mxGeometry>
        </mxCell>
        <mxCell id="ezNjA5Wxd-ZKoXVSeu9R-24" value="Trainers" style="endArrow=blockThin;endFill=1;fontSize=11;orthogonal=1;noEdgeStyle=1;" edge="1" parent="1" source="ezNjA5Wxd-ZKoXVSeu9R-5" target="ezNjA5Wxd-ZKoXVSeu9R-13">
          <mxGeometry relative="1" as="geometry">
            <Array as="points">
              <mxPoint x="87" y="246.25" />
              <mxPoint x="163" y="272.5" />
            </Array>
          </mxGeometry>
        </mxCell>
        <mxCell id="ezNjA5Wxd-ZKoXVSeu9R-25" value="Training Coordinators" style="endArrow=blockThin;endFill=1;fontSize=11;orthogonal=1;noEdgeStyle=1;" edge="1" parent="1" source="ezNjA5Wxd-ZKoXVSeu9R-14" target="ezNjA5Wxd-ZKoXVSeu9R-15">
          <mxGeometry relative="1" as="geometry">
            <Array as="points">
              <mxPoint x="157" y="462.5" />
              <mxPoint x="233" y="462.5" />
            </Array>
          </mxGeometry>
        </mxCell>
      </root>
    </mxGraphModel>
  </diagram>
</mxfile>
